<?xml version="1.0" standalone="no"?>
<!DOCTYPE svg PUBLIC "-//W3C//DTD SVG 1.1//EN" "http://www.w3.org/Graphics/SVG/1.1/DTD/svg11.dtd" >
<svg>
<metadata>
Created by FontForge 20110222 at Mon Mar  7 13:18:48 2011
 By www-data
Copyright (c) 2008 by Roman Gornitsky.
</metadata>
<defs>
<font id="ProtoSans32" horiz-adv-x="621" >
  <font-face 
    font-family="Proto Sans 32"
    font-weight="400"
    font-stretch="normal"
    units-per-em="1000"
    panose-1="0 0 0 0 0 0 0 0 0 0"
    ascent="750"
    descent="-250"
    x-height="550"
    cap-height="700"
    bbox="-4 -150 1109 805"
    underline-thickness="50"
    underline-position="-50"
    unicode-range="U+0020-20AC"
  />
    <missing-glyph />
    <glyph glyph-name="space" unicode=" " horiz-adv-x="253" 
 />
    <glyph glyph-name="A" unicode="A" horiz-adv-x="702" 
d="M491 0v203h-280v-203h-151v700h582v-700h-151zM211 333h280v237h-280v-237z" />
    <glyph glyph-name="B" unicode="B" horiz-adv-x="702" 
d="M60 0v700h577l-77 -245h82v-455h-582zM491 325h-280v-195h280v195zM211 570v-115h200l34 115h-234z" />
    <glyph glyph-name="C" unicode="C" horiz-adv-x="702" 
d="M211 571v-442h280v120h151v-249h-582v700h582v-249h-151v120h-280z" />
    <glyph glyph-name="E" unicode="E" horiz-adv-x="675" 
d="M211 571v-156h263v-129h-263v-157h411v-129h-562v700h562v-129h-411z" />
    <glyph glyph-name="H" unicode="H" horiz-adv-x="702" 
d="M491 0v285h-280v-285h-151v700h151v-285h280v285h151v-700h-151z" />
    <glyph glyph-name="O" unicode="O" horiz-adv-x="702" 
d="M60 0v700h582v-700h-582zM211 571v-442h280v442h-280z" />
    <glyph glyph-name="P" unicode="P" horiz-adv-x="685" 
d="M625 185h-414v-185h-151v700h565v-515zM211 315h263v255h-263v-255z" />
    <glyph glyph-name="T" unicode="T" horiz-adv-x="667" 
d="M35 570v130h598v-130h-224v-570h-151v570h-223z" />
    <glyph glyph-name="U" unicode="U" horiz-adv-x="702" 
d="M211 700v-570h280v570h151v-700h-582v700h151z" />
    <glyph glyph-name="X" unicode="X" horiz-adv-x="718" 
d="M222 700l138 -242l137 242h181l-208 -350l215 -350h-184l-141 243l-142 -243h-185l215 350l-208 350h182z" />
    <glyph glyph-name="Q" unicode="Q" horiz-adv-x="720" 
d="M60 0v700h600v-700h-227v-137h-147v137h-226zM211 571v-442h75v112h147v-112h76v442h-298z" />
    <glyph glyph-name="R" unicode="R" horiz-adv-x="707" 
d="M211 202v-202h-151v700h582v-498h-73l78 -202h-152l-81 202h-203zM211 332h280v238h-280v-238z" />
    <glyph glyph-name="I" unicode="I" horiz-adv-x="271" 
d="M60 700h151v-700h-151v700z" />
    <glyph glyph-name="G" unicode="G" horiz-adv-x="710" 
d="M650 423v-423h-590v700h590v-129h-439v-442h288v164h-137v130h288z" />
    <glyph glyph-name="F" unicode="F" horiz-adv-x="624" 
d="M211 571v-156h284v-129h-284v-286h-151v700h532v-129h-381z" />
    <glyph glyph-name="L" unicode="L" horiz-adv-x="613" 
d="M578 130v-130h-518v700h151v-570h367z" />
    <glyph glyph-name="exclam" unicode="!" horiz-adv-x="260" 
d="M61 188v512h139v-512h-139zM200 130v-130h-140v130h140z" />
    <glyph glyph-name="period" unicode="." horiz-adv-x="248" 
d="M194 0h-139v130h139v-130z" />
    <glyph glyph-name="J" unicode="J" horiz-adv-x="629" 
d="M36 0v209h151v-79h231v570h151v-700h-533z" />
    <glyph glyph-name="S" unicode="S" horiz-adv-x="702" 
d="M60 129h431v167h-431v404h582v-129h-431v-146h431v-425h-582v129z" />
    <glyph glyph-name="Y" unicode="Y" horiz-adv-x="704" 
d="M428 0h-151v221h-217v479h151v-349h282v349h151v-479h-216v-221z" />
    <glyph glyph-name="N" unicode="N" horiz-adv-x="714" 
d="M654 0h-151v312l-292 140v-452h-151v710l443 -221v211h151v-700z" />
    <glyph glyph-name="M" unicode="M" horiz-adv-x="787" 
d="M576 0v371l-182 -183l-183 183v-371h-151v710l334 -320l333 320v-710h-151z" />
    <glyph glyph-name="Z" unicode="Z" horiz-adv-x="677" 
d="M639 700l-350 -571h340v-129h-596l354 571h-339v129h591z" />
    <glyph glyph-name="D" unicode="D" horiz-adv-x="764" 
d="M49 571v129h655v-700h-655v129h76v442h-76zM276 571v-442h277v442h-277z" />
    <glyph glyph-name="afii10092" unicode="&#x44a;" horiz-adv-x="664" 
d="M26 432v118h242v-192h336v-358h-475v432h-103zM268 118h197v122h-197v-122z" />
    <glyph glyph-name="a" unicode="a" 
d="M60 432v118h501v-550h-501v349h362v83h-362zM422 231h-223v-113h223v113z" />
    <glyph glyph-name="p" unicode="p" 
d="M60 -150v700h501v-550h-362v-150h-139zM422 432h-223v-314h223v314z" />
    <glyph glyph-name="o" unicode="o" 
d="M561 550v-550h-501v550h501zM422 432h-223v-314h223v314z" />
    <glyph glyph-name="n" unicode="n" 
d="M561 550v-550h-139v432h-223v-432h-139v550h501z" />
    <glyph glyph-name="m" unicode="m" horiz-adv-x="831" 
d="M771 550v-550h-139v432h-147v-432h-139v432h-147v-432h-139v550h711z" />
    <glyph glyph-name="u" unicode="u" 
d="M60 0v550h139v-432h223v432h139v-550h-501z" />
    <glyph glyph-name="d" unicode="d" 
d="M561 700v-700h-501v550h362v150h139zM199 118h223v314h-223v-314z" />
    <glyph glyph-name="y" unicode="y" 
d="M561 550v-700h-139v150h-362v550h139v-432h223v432h139z" />
    <glyph glyph-name="q" unicode="q" 
d="M561 550v-700h-139v150h-362v550h501zM422 432h-223v-314h223v314z" />
    <glyph glyph-name="h" unicode="h" 
d="M60 700h139v-150h362v-550h-139v432h-223v-432h-139v700z" />
    <glyph glyph-name="c" unicode="c" 
d="M422 432h-223v-314h223v78h139v-196h-501v550h501v-196h-139v78z" />
    <glyph glyph-name="b" unicode="b" 
d="M60 0v700h139v-150h362v-550h-501zM199 118h223v314h-223v-314z" />
    <glyph glyph-name="i" unicode="i" horiz-adv-x="259" 
d="M199 700v-96h-139v96h139zM199 550v-550h-139v550h139z" />
    <glyph glyph-name="x" unicode="x" horiz-adv-x="618" 
d="M409 283l180 -283h-164l-116 193l-116 -193h-164l180 283l-174 267h165l109 -182l109 182h165z" />
    <glyph glyph-name="r" unicode="r" horiz-adv-x="492" 
d="M451 550v-118h-252v-432h-139v550h391z" />
    <glyph glyph-name="t" unicode="t" horiz-adv-x="401" 
d="M199 550h151v-118h-151v-314h155v-118h-294v650h139v-100z" />
    <glyph glyph-name="f" unicode="f" horiz-adv-x="403" 
d="M358 392h-159v-392h-139v700h311v-118h-172v-72h159v-118z" />
    <glyph glyph-name="l" unicode="l" horiz-adv-x="259" 
d="M199 700v-700h-139v700h139z" />
    <glyph glyph-name="w" unicode="w" horiz-adv-x="831" 
d="M60 0v550h139v-432h147v432h139v-432h147v432h139v-550h-711z" />
    <glyph glyph-name="g" unicode="g" 
d="M561 550v-700h-501v118h362v72h-362v510h501zM199 158h223v274h-223v-274z" />
    <glyph glyph-name="j" unicode="j" horiz-adv-x="265" 
d="M205 700v-96h-139v96h139zM66 -32v582h139v-700h-209v118h70z" />
    <glyph glyph-name="s" unicode="s" 
d="M561 339v-339h-501v118h362v103h-362v329h501v-118h-362v-93h362z" />
    <glyph glyph-name="v" unicode="v" horiz-adv-x="617" 
d="M170 0l-143 550h144l107 -432h63l105 432h144l-143 -550h-277z" />
    <glyph glyph-name="k" unicode="k" horiz-adv-x="625" 
d="M440 0l-93 220h-148v-220h-139v700h139v-362h149l90 212h142l-118 -264l130 -286h-152z" />
    <glyph glyph-name="z" unicode="z" horiz-adv-x="576" 
d="M532 0h-500l278 432h-262v118h494l-284 -432h274v-118z" />
    <glyph glyph-name="V" unicode="V" horiz-adv-x="729" 
d="M396 130l142 570h157l-177 -700h-307l-178 700h158l143 -570h62z" />
    <glyph glyph-name="W" unicode="W" horiz-adv-x="953" 
d="M709 130l51 570h151l-66 -700h-736l-66 700h151l50 -570h157v420h151v-420h157z" />
    <glyph glyph-name="five" unicode="5" horiz-adv-x="702" 
d="M211 128h280v188h-431v384h582v-129h-431v-126h431v-446h-582v227h151v-98z" />
    <glyph glyph-name="six" unicode="6" horiz-adv-x="702" 
d="M211 455h431v-455h-582v700h582v-130h-431v-115zM491 325h-280v-195h280v195z" />
    <glyph glyph-name="nine" unicode="9" horiz-adv-x="702" 
d="M491 245h-431v455h582v-700h-582v130h431v115zM211 375h280v195h-280v-195z" />
    <glyph glyph-name="zero" unicode="0" horiz-adv-x="702" 
d="M60 0v700h582v-700h-582zM211 571v-442h280v442h-280z" />
    <glyph glyph-name="seven" unicode="7" horiz-adv-x="684" 
d="M36 700h627l-307 -700h-175l260 571h-254v-65h-151v194z" />
    <glyph glyph-name="eight" unicode="8" horiz-adv-x="718" 
d="M60 0v455h43v245h512v-245h43v-455h-598zM507 325h-296v-195h296v195zM254 570v-115h209v115h-209z" />
    <glyph glyph-name="colon" unicode=":" horiz-adv-x="248" 
d="M194 62h-139v130h139v-130zM194 328h-139v130h139v-130z" />
    <glyph glyph-name="two" unicode="2" horiz-adv-x="706" 
d="M60 0v256l435 204v111h-284v-110h-151v239h586v-309l-435 -202v-60h284v66h151v-195h-586z" />
    <glyph glyph-name="one" unicode="1" horiz-adv-x="452" 
d="M416 130v-130h-378v130h113v440h-102v130h253v-570h114z" />
    <glyph glyph-name="question" unicode="?" horiz-adv-x="709" 
d="M269 194v209h241v180h-318v-132h-139v249h596v-415h-253v-91h-127zM268 130v-130h127v130h-127z" />
    <glyph glyph-name="equal" unicode="=" horiz-adv-x="633" 
d="M573 510v-118h-513v118h513zM573 317v-118h-513v118h513z" />
    <glyph glyph-name="endash" unicode="&#x2013;" horiz-adv-x="674" 
d="M588 346v-118h-501v118h501z" />
    <glyph glyph-name="emdash" unicode="&#x2014;" horiz-adv-x="669" 
d="M650 346v-118h-631v118h631z" />
    <glyph glyph-name="underscore" unicode="_" horiz-adv-x="598" 
d="M560 118v-118h-521v118h521z" />
    <glyph glyph-name="hyphen" unicode="-" horiz-adv-x="454" 
d="M402 346v-118h-350v118h350z" />
    <glyph glyph-name="four" unicode="4" horiz-adv-x="685" 
d="M211 327h263v373h151v-700h-151v197h-414v503h151v-373z" />
    <glyph glyph-name="ampersand" unicode="&#x26;" horiz-adv-x="729" 
d="M622 700v-130h-367l43 -115h404v-130h-60v-325h-582v455h90l-88 245h560zM491 130v195h-280v-195h280z" />
    <glyph glyph-name="dollar" unicode="$" horiz-adv-x="702" 
d="M282 800h139v-100h221v-129h-431v-146h431v-425h-221v-100h-139v100h-222v129h431v167h-431v404h222v100z" />
    <glyph glyph-name="ellipsis" unicode="&#x2026;" horiz-adv-x="624" 
d="M194 0h-139v130h139v-130zM382 0h-139v130h139v-130zM570 0h-139v130h139v-130z" />
    <glyph glyph-name="bracketleft" unicode="[" horiz-adv-x="317" 
d="M276 118v-118h-216v700h216v-118h-77v-464h77z" />
    <glyph glyph-name="bracketright" unicode="]" horiz-adv-x="317" 
d="M41 0v118h77v464h-77v118h216v-700h-216z" />
    <glyph glyph-name="bar" unicode="|" horiz-adv-x="259" 
d="M199 -150h-139v850h139v-850z" />
    <glyph glyph-name="brokenbar" unicode="&#xa6;" horiz-adv-x="259" 
d="M199 -150h-139v420h139v-420zM199 700v-360h-139v360h139z" />
    <glyph glyph-name="periodcentered" unicode="&#xb7;" horiz-adv-x="259" 
d="M199 238h-139v130h139v-130z" />
    <glyph glyph-name="bullet" unicode="&#x2022;" horiz-adv-x="259" 
d="M199 238h-139v130h139v-130z" />
    <glyph glyph-name="degree" unicode="&#xb0;" horiz-adv-x="388" 
d="M43 440v260h301v-260h-301zM147 612v-84h93v84h-93z" />
    <glyph glyph-name="comma" unicode="," horiz-adv-x="248" 
d="M194 -109h-139v239h139v-239z" />
    <glyph glyph-name="slash" unicode="/" horiz-adv-x="374" 
d="M33 0l170 700h139l-170 -700h-139z" />
    <glyph glyph-name="numbersign" unicode="#" horiz-adv-x="713" 
d="M65 397v100h132l50 203h139l-50 -203h104l51 203h139l-51 -203h99v-100h-123l-22 -92h115v-100h-139l-49 -205h-139l49 205h-104l-50 -205h-139l50 205h-92v100h116l22 92h-108zM312 397l-22 -92h104l22 92h-104z" />
    <glyph glyph-name="quotesingle" unicode="'" horiz-adv-x="246" 
d="M192 461h-139v239h139v-239z" />
    <glyph glyph-name="quotedbl" unicode="&#x22;" horiz-adv-x="430" 
d="M192 461h-139v239h139v-239zM376 461h-139v239h139v-239z" />
    <glyph glyph-name="plus" unicode="+" horiz-adv-x="529" 
d="M197 548h134v-154h147v-118h-147v-155h-134v155h-146v118h146v154z" />
    <glyph glyph-name="plusminus" unicode="&#xb1;" horiz-adv-x="545" 
d="M205 630h134v-136h147v-118h-147v-137h-134v137h-146v118h146v136zM59 204h427v-118h-427v118z" />
    <glyph glyph-name="quoteleft" unicode="&#x2018;" horiz-adv-x="246" 
d="M192 461h-139v239h139v-239z" />
    <glyph glyph-name="quoteright" unicode="&#x2019;" horiz-adv-x="246" 
d="M192 461h-139v239h139v-239z" />
    <glyph glyph-name="quotedblleft" unicode="&#x201c;" horiz-adv-x="430" 
d="M193 461h-139v239h139v-239zM377 461h-139v239h139v-239z" />
    <glyph glyph-name="quotedblright" unicode="&#x201d;" horiz-adv-x="430" 
d="M192 461h-139v239h139v-239zM376 461h-139v239h139v-239z" />
    <glyph glyph-name="quotedblbase" unicode="&#x201e;" horiz-adv-x="434" 
d="M194 -109h-139v239h139v-239zM380 -109h-139v239h139v-239z" />
    <glyph glyph-name="parenleft" unicode="(" horiz-adv-x="317" 
d="M276 118v-118h-216v700h216v-118h-77v-464h77z" />
    <glyph glyph-name="parenright" unicode=")" horiz-adv-x="317" 
d="M41 0v118h77v464h-77v118h216v-700h-216z" />
    <glyph glyph-name="semicolon" unicode=";" horiz-adv-x="248" 
d="M194 328h-139v130h139v-130zM194 -109h-139v239h139v-239z" />
    <glyph glyph-name="quotesinglbase" unicode="&#x201a;" horiz-adv-x="248" 
d="M194 -109h-139v239h139v-239z" />
    <glyph glyph-name="less" unicode="&#x3c;" horiz-adv-x="394" 
d="M261 571l83 -77l-145 -145l145 -144l-85 -88l-225 226z" />
    <glyph glyph-name="greater" unicode="&#x3e;" horiz-adv-x="394" 
d="M50 494l82 77l228 -228l-226 -226l-84 88l145 144z" />
    <glyph glyph-name="guillemotleft" unicode="&#xab;" horiz-adv-x="590" 
d="M233 465l83 -77l-113 -113l113 -112l-85 -88l-193 194zM465 453l83 -77l-101 -101l101 -100l-85 -88l-181 182z" />
    <glyph glyph-name="guillemotright" unicode="&#xbb;" horiz-adv-x="590" 
d="M279 388l83 77l195 -196l-193 -194l-85 88l113 112zM47 376l83 77l183 -184l-181 -182l-85 88l101 100z" />
    <glyph glyph-name="asciicircum" unicode="^" horiz-adv-x="445" 
d="M117 453l-79 80l187 187l182 -182l-87 -85l-102 102z" />
    <glyph glyph-name="backslash" unicode="\" horiz-adv-x="374" 
d="M172 700l170 -700h-139l-170 700h139z" />
    <glyph glyph-name="guilsinglleft" unicode="&#x2039;" horiz-adv-x="346" 
d="M217 453l82 -77l-101 -101l101 -100l-84 -88l-182 182z" />
    <glyph glyph-name="guilsinglright" unicode="&#x203a;" horiz-adv-x="346" 
d="M47 376l83 77l183 -184l-181 -182l-85 88l101 100z" />
    <glyph glyph-name="paragraph" unicode="&#xb6;" horiz-adv-x="567" 
d="M367 0h-139v300h-170v400h470v-70h-39v-630h-79v630h-43v-630z" />
    <glyph glyph-name="braceleft" unicode="{" horiz-adv-x="365" 
d="M247 582v-179l-54 -54l54 -54v-177h77v-118h-216v263l-80 80l80 80v277h216v-118h-77z" />
    <glyph glyph-name="braceright" unicode="}" horiz-adv-x="365" 
d="M118 403v179h-77v118h216v-277l80 -80l-80 -80v-263h-216v118h77v177l54 54z" />
    <glyph glyph-name="asterisk" unicode="*" horiz-adv-x="402" 
d="M40 556l27 85l88 -28v93h98v-91l82 26l27 -83l-88 -31l56 -80l-74 -52l-54 73l-53 -73l-74 53l55 77z" />
    <glyph glyph-name="perthousand" unicode="&#x2030;" horiz-adv-x="1148" 
d="M232 0l230 700h137l-230 -700h-137zM486 0v260h289v-260h-289zM590 172v-84h81v84h-81zM55 440v260h289v-260h-289zM159 612v-84h81v84h-81zM820 0v260h289v-260h-289zM924 172v-84h81v84h-81z" />
    <glyph glyph-name="e" unicode="e" 
d="M561 118v-118h-501v550h501v-341h-362v-91h362zM199 327h223v105h-223v-105z" />
    <glyph glyph-name="afii10077.smcp" horiz-adv-x="625" 
d="M21 0v118h55l66 432h423v-550h-139v432h-172l-64 -432h-169z" />
    <glyph glyph-name="afii10078.smcp" horiz-adv-x="712" 
d="M513 0v258l-157 -135l-157 135v-258h-139v560l296 -265l296 265v-560h-139z" />
    <glyph glyph-name="r.smcp" horiz-adv-x="624" 
d="M430 0l-80 180h-151v-180h-139v550h501l-1 -370h-61l81 -180h-150zM422 432h-223v-134h223v134z" />
    <glyph glyph-name="grave" unicode="`" horiz-adv-x="250" 
d="M81 600l-48 205h129l48 -205h-129z" />
    <glyph glyph-name="afii10100" unicode="&#x453;" horiz-adv-x="503" 
d="M471 550v-118h-272v-432h-139v550h411zM382 805l-48 -205h-130l49 205h129z" />
    <glyph glyph-name="three" unicode="3" horiz-adv-x="705" 
d="M60 457v243h583l-92 -227h91v-473h-582v243h151v-113h280v213h-136l86 227h-230v-113h-151z" />
    <glyph glyph-name="uni00AD" unicode="&#xad;" horiz-adv-x="674" 
d="M588 346v-118h-501v118h501z" />
    <glyph glyph-name="K" unicode="K" horiz-adv-x="710" 
d="M388 415l117 285h152l-145 -343l158 -357h-163l-120 285h-176v-285h-151v700h151v-285h177z" />
    <glyph glyph-name="Euro" unicode="&#x20ac;" horiz-adv-x="762" 
d="M271 571v-442h280v120h151v-249h-582v700h582v-249h-151v120h-280zM453 510v-118h-433v118h433zM453 317v-118h-433v118h433z" />
    <glyph glyph-name="at" unicode="@" horiz-adv-x="1020" 
d="M211 571v-592h749v-129h-900v850h900v-670h-689v309h338v63h-338v118h477v-372h61v423h-598zM609 221h-199v-73h199v73z" />
  </font>
</defs>
</svg>
